Coordinates
nRows=10
nColumns=38

# SIMM Motion File Header:
name Coordinates
datacolumns 38
datarows 10
otherdata 1
range 1.87189999999999990000 1.88089999999999980000

Units are S.I. units (second, meters, Newtons, ...)
Angles are in degrees.

endheader
time	pelvis_tilt	pelvis_list	pelvis_rotation	pelvis_tx	pelvis_ty	pelvis_tz	hip_flexion_r	hip_adduction_r	hip_rotation_r	knee_angle_r	ankle_angle_r	subtalar_angle_r	mtp_angle_r	hip_flexion_l	hip_adduction_l	hip_rotation_l	knee_angle_l	ankle_angle_l	subtalar_angle_l	mtp_angle_l	lumbar_extension	lumbar_bending	lumbar_rotation	arm_flex_r	arm_add_r	arm_rot_r	elbow_flex_r	pro_sup_r	wrist_flex_r	wrist_dev_r	arm_flex_l	arm_add_l	arm_rot_l	elbow_flex_l	pro_sup_l	wrist_flex_l	wrist_dev_l
      1.87189999999999990000	     -7.00227033385671940000	     -0.99571068918006878000	     -2.79794330508050800000	      0.92108402331362593000	      1.06280869227838500000	     -0.32378871270885196000	     34.08034996292502000000	      7.16181402307349300000	      2.56916434118518610000	    -15.66172435382885200000	      9.80577662352139790000	      0.00000000000000000000	      0.00000000000000000000	    -15.15314834749818500000	      2.59193719672812730000	     -7.75718874936514520000	    -33.19901278172634600000	    -11.47693661685934100000	      0.00000000000000000000	      0.00000000000000000000	     -6.15455101149567520000	      2.45640200033490250000	    -17.42582616074333800000	    -45.92972985125177800000	    -26.38930746454804300000	     -5.49819768188059670000	    104.96074443081947000000	    116.09501553193796000000	      0.00000000000000000000	      0.00000000000000000000	    -16.89587078092571900000	    -20.33742462487803200000	      0.80594049618867969000	    129.48989060883122000000	    102.32728078610170000000	      0.00000000000000000000	      0.00000000000000000000
      1.87289999999999980000	     -6.97818680363939240000	     -1.02432762685383190000	     -2.87191180224649180000	      0.92116868915716532000	      1.06245502939048530000	     -0.32364849628183157000	     34.02494809605989400000	      7.23511365137167670000	      2.51935858310215720000	    -15.64999240749940600000	      9.76921640570857800000	      0.00000000000000000047	      0.00000000000000000043	    -15.07773821228214000000	      2.59047988331412290000	     -7.68928026406357730000	    -33.64428957449091900000	    -11.29913243386606500000	     -0.00000000000000000012	     -0.00000000000000000010	     -6.18645895401709470000	      2.49064632718666080000	    -17.33690131241261400000	    -45.81587454582213300000	    -26.41884038655748800000	     -5.52739901517899930000	    104.97072115371978000000	    116.12284595759157000000	      0.00000000000000000006	     -0.00000000000000000001	    -16.93068502038741100000	    -20.31571748766392500000	      0.84148282226905780000	    129.43822274409860000000	    102.30439715582310000000	      0.00000000000000000008	      0.00000000000000000035
      1.87389999999999990000	     -6.95183684396357910000	     -1.05364673106543090000	     -2.94559039058885250000	      0.92125007900192146000	      1.06209746767745060000	     -0.32351030932159985000	     33.96804706841161400000	      7.30903598385158130000	      2.47134444645246010000	    -15.64793006500643600000	      9.73050624039851190000	      0.00000000000000000074	      0.00000000000000000165	    -15.00136665380075000000	      2.58926977873275100000	     -7.61964840420689350000	    -34.09406827937574000000	    -11.12156921065973600000	     -0.00000000000000000075	     -0.00000000000000000114	     -6.22176179718718900000	      2.52573931096329710000	    -17.24763127678759700000	    -45.69835723352829900000	    -26.44945681283337500000	     -5.55437887825600730000	    104.97893538179332000000	    116.14766989977095000000	      0.00000000000000000027	     -0.00000000000000000056	    -16.96479710090053000000	    -20.29349873188818900000	      0.87716438735556568000	    129.38506603017007000000	    102.28125665840814000000	      0.00000000000000000010	      0.00000000000000000121
      1.87489999999999980000	     -6.92319967924579500000	     -1.08365528650246070000	     -3.01903070314056120000	      0.92132815742067853000	      1.06173615218668660000	     -0.32337413652826041000	     33.90963047111064600000	      7.38356543460049770000	      2.42540316053662730000	    -15.65549504992407900000	      9.68661600451965830000	      0.00000000000000000077	      0.00000000000000000261	    -14.92410116432539600000	      2.58830903426251830000	     -7.54860754509054120000	    -34.54819485085536700000	    -10.94467564285284000000	     -0.00000000000000000226	     -0.00000000000000000160	     -6.26048590196333340000	      2.56166497177599740000	    -17.15795785996645200000	    -45.57719007896995600000	    -26.48116526133898700000	     -5.57916277694197850000	    104.98538198638698000000	    116.16942449578025000000	      0.00000000000000000056	     -0.00000000000000000122	    -16.99819400788987500000	    -20.27075469323929400000	      0.91301868766482186000	    129.33038796482174000000	    102.25786136563205000000	     -0.00000000000000000001	      0.00000000000000000250
      1.87589999999999990000	     -6.89209253660118380000	     -1.11429654606150710000	     -3.09218781250992910000	      0.92140306355900192000	      1.06137140439312060000	     -0.32324010258623892000	     33.84941729958330100000	      7.45859330570578210000	      2.38167315268314450000	    -15.67246928784360800000	      9.63813468772610270000	      0.00000000000000000194	      0.00000000000000000448	    -14.84620765968814900000	      2.58762397072093140000	     -7.47640178098565670000	    -35.00645347814231900000	    -10.76894948241635500000	     -0.00000000000000000406	     -0.00000000000000000253	     -6.30282015504348700000	      2.59835253350584640000	    -17.06791789101635700000	    -45.45239340549177600000	    -26.51395978045750100000	     -5.60177751886782360000	    104.99008334501863000000	    116.18804349609023000000	      0.00000000000000000059	     -0.00000000000000000177	    -17.03085955922981000000	    -20.24750662993410800000	      0.94907523760705470000	    129.27418547303824000000	    102.23418782879335000000	     -0.00000000000000000011	      0.00000000000000000376
      1.87689999999999980000	     -6.85844667236256630000	     -1.14551544192771830000	     -3.16503336889259050000	      0.92147486779348442000	      1.06100336391055720000	     -0.32310830582211736000	     33.78728548690320800000	      7.53402458632582130000	      2.34030653153037970000	    -15.69870075745151000000	      9.58500286465843660000	      0.00000000000000000161	      0.00000000000000000470	    -14.76781493361418600000	      2.58723283013277340000	     -7.40328830505327140000	    -35.46867014325260200000	    -10.59484570454801200000	     -0.00000000000000000515	     -0.00000000000000000416	     -6.34882696390641590000	      2.63573827621802700000	    -16.97753374792910800000	    -45.32400296472403800000	    -26.54783764342949200000	     -5.62225581152984780000	    104.99305611221489000000	    116.20346895277966000000	      0.00000000000000000025	     -0.00000000000000000206	    -17.06279412387885200000	    -20.22376434942674800000	      0.98536389936118107000	    129.21644556601302000000	    102.21021830875422000000	      0.00000000000000000057	      0.00000000000000000453
      1.87789999999999990000	     -6.82227023019141580000	     -1.17725366217281180000	     -3.23752525728575340000	      0.92154360773587618000	      1.06063203121630020000	     -0.32297886341243093000	     33.72321214068825400000	      7.60975538293828620000	      2.30140790580806520000	    -15.73406830521138900000	      9.52725743448615780000	      0.00000000000000000097	      0.00000000000000000382	    -14.68895749655936800000	      2.58714597918273310000	     -7.32950388754446620000	    -35.93470600137943200000	    -10.42278163651133800000	     -0.00000000000000000564	     -0.00000000000000000484	     -6.39848130406619120000	      2.67375976534356720000	    -16.88684355204146900000	    -45.19206915183056600000	    -26.58279581649472700000	     -5.64063442639053210000	    104.99431569311155000000	    116.21565216845894000000	     -0.00000000000000000039	     -0.00000000000000000262	    -17.09401112306131100000	    -20.19953402405988600000	      1.02191268405967950000	    129.15715150459909000000	    102.18593616444122000000	      0.00000000000000000180	      0.00000000000000000562
      1.87889999999999980000	     -6.78362660368592700000	     -1.20946041575553530000	     -3.30958392320645740000	      0.92160929181630336000	      1.06025731406680480000	     -0.32285194518663185000	     33.65724607970979300000	      7.68567066996240560000	      2.26503151995691890000	    -15.77847210899939500000	      9.46494729450285280000	     -0.00000000000000000004	      0.00000000000000000110	    -14.60959670324634600000	      2.58734940870648260000	     -7.25524493530657640000	    -36.40446080749842400000	    -10.25313615011168300000	     -0.00000000000000000620	     -0.00000000000000000487	     -6.45169659837324700000	      2.71236848205976510000	    -16.79592271476788300000	    -45.05665104877964200000	    -26.61882954740556100000	     -5.65695281814653490000	    104.99387553088650000000	    116.22455380488250000000	     -0.00000000000000000089	     -0.00000000000000000335	    -17.12452998440982900000	    -20.17482059381496000000	      1.05874803766451400000	    129.09628225746218000000	    102.16132441186839000000	      0.00000000000000000354	      0.00000000000000000694
      1.87989999999999990000	     -6.74262117329406680000	     -1.24207912296433580000	     -3.38117441689911850000	      0.92167190088326179000	      1.05987903903306880000	     -0.32272764598284792000	     33.58950061023689700000	      7.76167749432174150000	      2.23124831081583650000	    -15.83185229803839500000	      9.39812992326946170000	     -0.00000000000000000066	     -0.00000000000000000301	    -14.52965296147169600000	      2.58783986265092740000	     -7.18074394505733780000	    -36.87783868683259000000	    -10.08626755916048400000	     -0.00000000000000000743	     -0.00000000000000000444	     -6.50834244269027180000	      2.75150831878228970000	    -16.70480350589686600000	    -44.91781788450319400000	    -26.65593504328936800000	     -5.67125507242039180000	    104.99175234546856000000	    116.23014222265422000000	     -0.00000000000000000108	     -0.00000000000000000493	    -17.15437340187230600000	    -20.14962726332499800000	      1.09589518557098640000	    129.03381495315708000000	    102.13636529675379000000	      0.00000000000000000601	      0.00000000000000000729
      1.88089999999999980000	     -6.69938883537261900000	     -1.27505135597753490000	     -3.45229782686365190000	      0.92173139109542868000	      1.05949697589689930000	     -0.32260599758279490000	     33.52013738354325100000	      7.83770364090360070000	      2.20014027835534520000	    -15.89418361796686500000	      9.32686915718295320000	     -0.00000000000000000146	     -0.00000000000000000913	    -14.44901889344144900000	      2.58861891491692250000	     -7.10626173014865610000	    -37.35474789607301500000	     -9.92251310683679750000	     -0.00000000000000000948	     -0.00000000000000000456	     -6.56825942265960890000	      2.79111964069266930000	    -16.61348269048058100000	    -44.77564612877090200000	    -26.69410880248902600000	     -5.68358920962892180000	    104.98796619856870000000	    116.23239351002535000000	     -0.00000000000000000122	     -0.00000000000000000783	    -17.18356397066435200000	    -20.12395693435631500000	      1.13337812568917440000	    128.96972519838448000000	    102.11103950426357000000	      0.00000000000000000837	      0.00000000000000000536
